<svg xmlns="http://www.w3.org/2000/svg" version="1.1" xmlns:xlink="http://www.w3.org/1999/xlink" xmlns:svgjs="http://svgjs.com/svgjs" width="1000" height="1000"><g transform="matrix(0.9765625,0,0,0.9765625,-0.5001729726791382,-0.6393452882766724)"><svg xmlns="http://www.w3.org/2000/svg" version="1.1" xmlns:xlink="http://www.w3.org/1999/xlink" xmlns:svgjs="http://svgjs.com/svgjs" width="1024" height="1024"><svg xmlns="http://www.w3.org/2000/svg" version="1.1" viewBox="0.00 0.00 1024.00 1024.00">
<g stroke-width="2.00" fill="none" stroke-linecap="butt">
<path stroke="#6b6134" vector-effect="non-scaling-stroke" d="
  M 194.39 651.75
  A 26.60 26.60 0.0 0 0 167.79 625.15
  A 26.60 26.60 0.0 0 0 141.19 651.75
  A 26.60 26.60 0.0 0 0 167.79 678.35
  A 26.60 26.60 0.0 0 0 194.39 651.75"></path>
<path stroke="#6b6134" vector-effect="non-scaling-stroke" d="
  M 691.4001 750.7499
  A 36.09 35.04 87.3 0 0 724.7011 713.0494
  A 36.09 35.04 87.3 0 0 687.9999 678.6501
  A 36.09 35.04 87.3 0 0 654.6989 716.3506
  A 36.09 35.04 87.3 0 0 691.4001 750.7499"></path>
</g>
<path fill="#000000" d="
  M 639.66 152.16
  C 656.36 135.20 684.35 136.79 701.17 152.99
  C 703.52 155.26 705.06 158.41 706.98 161.22
  C 707.93 162.61 707.51 163.94 708.41 165.20
  C 712.22 170.57 711.09 183.01 709.93 188.74
  C 709.44 191.20 707.16 195.95 705.72 198.27
  C 695.26 215.11 679.13 221.40 659.32 217.25
  C 656.55 216.67 654.52 214.73 651.43 214.13
  C 650.54 213.96 648.82 212.12 647.67 211.55
  C 640.32 207.94 636.15 201.76 632.76 194.54
  C 628.76 186.00 629.03 175.52 630.59 166.45
  C 630.97 164.25 633.83 158.28 635.41 156.59
  Q 637.52 154.33 639.66 152.16
  Z
  M 657.72 157.47
  C 653.23 159.06 647.73 164.00 646.34 168.81
  C 644.91 173.72 645.31 181.78 649.18 185.81
  C 652.68 189.47 660.05 189.51 665.31 188.83
  C 668.46 188.42 674.44 184.59 675.06 181.26
  C 675.90 176.68 676.54 166.63 672.94 162.74
  C 669.24 158.75 663.29 155.48 657.72 157.47
  Z"></path>
<path fill="#000000" d="
  M 598.5314 185.3318
  A 15.08 14.75 96.2 0 1 585.4963 168.7470
  A 15.08 14.75 96.2 0 1 601.7886 155.3482
  A 15.08 14.75 96.2 0 1 614.8237 171.9330
  A 15.08 14.75 96.2 0 1 598.5314 185.3318
  Z
  M 601.6648 168.5514
  A 2.13 2.13 0.0 0 0 599.4834 166.4741
  L 597.2841 166.5278
  A 2.13 2.13 0.0 0 0 595.2068 168.7092
  L 595.2552 170.6886
  A 2.13 2.13 0.0 0 0 597.4366 172.7659
  L 599.6359 172.7122
  A 2.13 2.13 0.0 0 0 601.7132 170.5308
  L 601.6648 168.5514
  Z"></path>
<path fill="#000000" d="
  M 469.38 199.86
  C 473.64 203.11 478.49 208.18 481.18 210.65
  C 488.69 217.53 498.10 224.47 503.73 232.96
  A 1.20 1.19 47.8 0 0 505.65 233.06
  C 512.90 224.28 522.50 217.83 530.82 210.06
  C 537.20 204.11 544.59 199.23 551.16 193.28
  C 552.25 192.30 553.53 191.95 554.88 192.14
  Q 555.41 192.21 555.70 192.67
  L 561.05 201.14
  Q 561.27 201.49 561.64 201.70
  Q 562.39 202.12 562.93 202.82
  A 0.61 0.61 0.0 0 1 562.74 203.72
  C 560.78 204.79 558.79 205.41 557.10 206.82
  C 549.96 212.77 541.70 218.64 534.95 225.21
  Q 525.14 234.76 515.53 244.43
  A 0.10 0.10 0.0 0 0 515.53 244.57
  Q 549.59 280.98 576.95 320.64
  Q 577.23 321.05 577.72 320.92
  C 580.99 320.08 584.01 319.76 587.29 318.56
  Q 592.18 316.76 597.43 316.42
  C 599.51 316.29 602.27 314.57 604.61 314.15
  Q 609.80 313.22 614.83 311.66
  C 619.03 310.36 622.71 310.29 626.97 309.94
  A 2.32 2.32 0.0 0 1 629.43 311.83
  L 631.35 322.32
  A 2.56 2.55 -11.0 0 1 629.34 325.29
  Q 625.27 326.10 620.73 326.55
  C 616.66 326.95 613.59 328.97 609.60 329.39
  C 605.03 329.87 601.45 332.09 597.23 332.65
  C 591.96 333.37 584.23 332.51 589.60 341.15
  Q 591.58 344.32 592.17 345.42
  C 599.02 358.23 607.38 372.58 614.47 387.63
  C 615.49 389.78 617.17 392.01 617.88 395.09
  Q 618.02 395.70 618.57 396.00
  L 672.52 426.03
  A 1.31 1.30 18.7 0 0 674.45 425.08
  Q 675.32 418.85 677.47 412.83
  C 678.60 409.68 678.39 406.12 679.87 402.88
  C 681.91 398.39 681.68 392.81 683.10 387.92
  C 684.76 382.21 684.87 377.68 685.03 372.15
  A 1.01 1.00 -88.3 0 1 686.06 371.17
  L 699.34 371.49
  A 1.61 1.61 0.0 0 1 700.91 373.15
  C 700.71 378.78 698.65 383.49 697.91 388.81
  C 697.09 394.80 695.20 400.47 694.25 406.52
  C 693.63 410.51 691.85 414.14 691.17 418.23
  C 690.34 423.16 686.17 431.21 687.39 436.08
  A 1.24 1.21 7.5 0 0 688.01 436.87
  C 697.45 441.76 707.40 449.31 714.23 454.05
  Q 723.44 460.45 732.07 467.64
  C 735.05 470.12 738.60 471.98 741.44 474.68
  C 747.85 480.77 755.32 485.72 761.45 491.93
  A 1.23 1.22 38.7 0 0 763.36 491.72
  Q 764.55 489.83 766.36 488.12
  Q 773.98 480.92 781.46 473.58
  C 789.87 465.34 797.68 455.61 805.77 446.53
  Q 807.72 444.33 810.67 440.07
  C 816.53 431.56 821.94 423.77 828.15 411.39
  C 828.83 410.03 829.23 408.16 830.21 406.70
  C 831.85 404.26 831.90 402.28 833.24 400.04
  C 835.39 396.42 835.05 392.91 836.34 389.23
  Q 839.32 380.74 838.05 371.76
  C 837.63 368.80 835.26 360.97 833.23 358.41
  C 823.26 345.79 811.97 337.38 796.44 332.42
  C 792.71 331.22 790.08 329.88 785.87 329.27
  Q 782.18 328.75 778.93 326.80
  Q 778.48 326.53 777.96 326.53
  Q 767.91 326.48 765.00 325.25
  Q 760.75 323.45 755.99 323.21
  A 1.63 1.62 -85.9 0 1 754.46 321.44
  L 755.45 310.39
  A 0.72 0.71 -85.4 0 1 756.20 309.74
  Q 762.30 310.13 768.62 310.41
  C 774.53 310.66 779.91 312.48 786.52 313.65
  C 789.93 314.26 794.00 315.74 796.38 316.46
  C 817.68 322.80 839.16 335.35 848.88 356.09
  C 852.04 362.86 853.58 374.40 852.74 381.55
  Q 851.94 388.35 850.93 395.11
  C 850.48 398.15 848.91 401.06 847.78 404.30
  C 841.48 422.36 829.39 440.21 817.64 455.60
  C 805.66 471.27 789.89 486.49 775.93 499.17
  Q 774.29 500.67 773.54 502.08
  Q 773.27 502.60 773.68 503.01
  Q 787.88 517.09 801.64 531.56
  C 806.95 537.15 811.67 543.51 816.62 549.60
  Q 830.57 566.76 841.57 585.93
  Q 846.22 594.04 849.08 602.93
  Q 849.52 604.31 850.41 605.49
  Q 850.70 605.87 850.77 606.35
  C 851.86 614.21 854.52 622.20 854.03 630.31
  C 853.38 640.91 850.08 651.45 843.13 659.69
  Q 835.02 669.29 827.04 674.52
  Q 820.16 679.02 806.80 684.29
  C 804.68 685.13 802.10 685.33 799.46 686.53
  C 796.49 687.87 793.30 688.02 790.35 689.19
  Q 786.10 690.89 781.55 691.35
  C 776.51 691.86 772.23 694.00 767.13 694.59
  C 762.99 695.06 759.87 696.11 756.14 697.20
  Q 755.66 697.34 755.24 697.07
  Q 753.19 695.70 752.80 693.93
  Q 751.61 688.52 748.91 683.95
  A 1.45 1.44 70.1 0 1 749.92 681.79
  C 753.13 681.26 755.99 681.00 759.27 679.99
  C 764.26 678.46 769.29 678.75 774.10 677.42
  C 780.05 675.78 786.31 675.41 791.99 673.17
  C 797.80 670.89 804.28 669.95 809.73 666.82
  C 811.87 665.59 813.96 665.22 815.94 663.77
  Q 819.28 661.34 822.83 659.26
  C 827.78 656.36 833.70 648.16 835.37 642.74
  C 835.99 640.77 837.35 638.86 837.70 636.99
  C 841.43 617.09 831.76 597.77 820.94 580.95
  C 819.36 578.50 815.68 574.01 813.48 570.31
  C 810.95 566.04 807.43 562.71 804.59 558.69
  Q 801.32 554.08 798.78 551.30
  C 787.51 539.04 777.11 526.07 764.54 514.70
  Q 762.83 513.16 761.49 512.51
  A 0.88 0.87 36.4 0 0 760.53 512.65
  C 753.83 518.69 747.10 524.84 739.78 530.13
  Q 737.62 531.68 732.62 535.84
  C 729.45 538.49 725.78 540.52 722.72 543.03
  Q 718.55 546.45 714.05 549.42
  C 711.46 551.13 707.87 554.34 704.45 556.25
  C 701.02 558.17 698.31 560.76 694.91 562.66
  C 692.41 564.06 690.39 565.85 687.88 567.25
  A 0.76 0.74 73.6 0 0 687.50 567.97
  Q 688.02 573.38 688.70 575.02
  C 690.93 580.39 691.34 585.86 693.02 591.22
  C 694.55 596.11 695.26 600.72 696.76 606.21
  C 697.93 610.44 697.91 614.69 699.19 618.93
  Q 700.92 624.66 701.17 630.65
  C 701.37 635.39 702.49 638.48 703.95 642.73
  Q 705.26 646.50 701.26 646.50
  L 689.77 646.50
  A 1.07 1.06 86.3 0 1 688.72 645.57
  C 688.14 640.96 688.07 636.49 686.85 631.91
  C 685.00 625.00 684.03 617.35 682.48 611.09
  C 680.63 603.61 679.01 596.04 676.89 588.63
  C 675.56 583.96 674.93 580.78 674.23 576.66
  A 0.64 0.64 0.0 0 0 673.41 576.16
  Q 672.89 576.33 672.77 576.69
  Q 672.63 577.10 672.24 577.31
  Q 648.57 589.68 624.36 600.95
  C 618.61 603.63 618.98 606.24 616.04 610.84
  Q 615.14 612.25 615.11 612.30
  Q 596.68 645.43 590.54 655.55
  Q 588.08 659.61 587.14 661.93
  A 0.93 0.92 -55.1 0 0 587.31 662.90
  Q 588.92 664.67 590.25 664.78
  Q 596.02 665.26 601.41 667.18
  C 606.44 668.97 611.50 669.03 616.63 670.63
  C 621.95 672.29 627.41 672.27 632.80 672.98
  Q 633.33 673.04 633.42 673.56
  C 634.08 677.17 631.80 678.80 630.97 681.34
  Q 630.07 684.09 629.43 686.94
  Q 629.31 687.45 628.81 687.63
  C 625.53 688.77 619.90 687.30 617.07 686.17
  C 612.87 684.50 607.92 684.93 604.01 684.21
  C 602.22 683.88 600.52 682.45 598.54 682.21
  Q 593.44 681.59 588.64 679.81
  C 584.93 678.44 581.97 678.28 578.32 677.70
  A 0.97 0.97 0.0 0 0 577.45 678.01
  C 571.64 684.36 568.16 690.08 563.80 695.64
  Q 560.85 699.41 558.15 703.22
  C 555.39 707.10 551.78 710.30 549.21 714.23
  C 540.51 727.51 527.08 737.41 517.74 750.44
  Q 517.44 750.86 517.83 751.21
  C 527.32 759.57 536.32 768.77 546.26 776.10
  Q 554.98 782.52 563.85 788.70
  Q 564.53 789.17 566.94 790.31
  C 568.49 791.04 569.56 792.26 570.86 793.01
  C 581.84 799.37 593.97 806.22 606.26 809.56
  C 609.38 810.41 613.38 812.32 617.18 812.59
  Q 628.66 813.43 641.11 812.70
  C 643.84 812.54 650.81 809.32 652.89 807.53
  Q 661.68 799.98 669.27 791.24
  C 671.88 788.24 673.73 784.66 675.88 781.20
  A 1.01 1.00 30.4 0 1 677.21 780.86
  Q 682.78 783.90 687.44 788.26
  A 2.10 2.09 -51.9 0 1 687.76 790.96
  C 685.64 794.16 683.12 797.08 681.00 800.21
  Q 674.99 809.11 666.80 816.08
  C 664.66 817.91 661.89 819.08 659.37 820.87
  C 655.65 823.50 650.92 825.18 646.74 826.92
  C 638.48 830.37 624.36 829.38 616.19 828.35
  C 613.24 827.97 610.55 826.18 607.27 825.85
  Q 603.32 825.45 599.71 823.82
  C 596.55 822.39 593.14 822.06 590.16 819.75
  Q 589.76 819.45 589.26 819.38
  C 588.61 819.30 587.83 819.31 587.27 819.03
  C 579.96 815.38 571.66 811.80 565.02 807.09
  C 563.73 806.17 562.09 806.02 560.84 805.05
  Q 557.64 802.59 554.18 800.56
  C 550.80 798.58 547.74 795.59 544.14 793.64
  C 539.18 790.94 535.30 786.71 530.79 783.34
  C 521.96 776.74 514.29 769.36 506.58 761.75
  A 1.90 1.90 0.0 0 0 503.88 761.77
  Q 498.11 767.68 491.74 773.31
  C 487.25 777.26 480.66 781.89 475.41 786.66
  Q 473.21 788.67 470.05 790.64
  C 466.50 792.85 463.44 795.82 460.04 797.93
  C 456.00 800.45 451.94 803.99 447.42 806.19
  C 445.53 807.11 444.24 808.89 442.36 809.45
  C 439.80 810.21 437.76 812.07 435.78 813.06
  C 430.95 815.50 426.81 818.01 421.73 820.02
  C 420.45 820.52 417.92 822.17 415.73 822.64
  Q 414.25 822.96 413.14 823.58
  C 409.78 825.43 405.80 825.65 402.84 826.67
  C 400.64 827.43 398.54 828.39 396.20 828.57
  C 388.86 829.15 374.82 830.33 368.19 827.24
  Q 364.69 825.61 360.76 825.24
  A 1.93 1.85 64.6 0 1 359.86 824.90
  C 357.02 822.87 353.80 821.93 351.14 820.07
  C 346.08 816.55 341.52 813.96 337.44 808.56
  C 331.38 800.53 325.83 792.17 321.69 783.04
  C 317.74 774.33 313.47 764.29 310.73 753.95
  C 309.21 748.21 307.50 743.43 306.61 737.94
  C 306.05 734.41 304.59 731.23 303.88 727.62
  A 1.67 1.66 84.1 0 0 302.24 726.28
  Q 297.54 726.33 293.67 723.68
  Q 293.22 723.38 292.68 723.36
  C 289.00 723.20 284.61 718.81 281.35 716.87
  C 277.97 714.86 275.90 710.51 273.71 707.34
  C 270.45 702.62 271.82 697.29 264.01 697.48
  C 258.74 697.61 254.80 695.13 250.05 694.70
  C 245.64 694.31 241.12 694.19 236.58 692.36
  C 232.31 690.65 228.24 691.29 223.79 689.12
  C 220.18 687.36 216.79 687.85 213.15 685.45
  Q 212.73 685.18 212.23 685.16
  Q 208.15 685.03 203.81 682.44
  Q 201.01 680.77 197.02 681.48
  A 1.41 1.37 -73.2 0 0 196.21 681.93
  Q 194.50 683.88 192.11 684.89
  C 189.40 686.03 187.98 687.50 185.78 689.09
  C 182.25 691.63 178.80 690.83 174.99 692.41
  Q 167.23 695.63 159.56 692.33
  Q 157.69 691.53 155.67 691.38
  C 151.94 691.10 149.80 688.97 146.89 687.39
  C 127.87 677.05 125.09 657.46 128.45 637.93
  Q 128.55 637.36 128.97 636.95
  Q 130.91 635.04 131.19 632.25
  A 2.10 1.99 -24.5 0 1 131.60 631.23
  C 133.38 628.90 134.60 626.03 136.15 624.02
  C 139.85 619.27 145.03 616.38 150.09 613.30
  C 158.04 608.48 176.34 609.52 184.50 613.58
  C 190.88 616.75 197.63 620.68 201.21 626.92
  C 202.53 629.24 204.93 631.83 205.61 635.11
  Q 205.71 635.60 206.07 635.94
  Q 207.43 637.21 207.73 638.75
  C 208.94 645.01 210.73 649.78 209.15 656.44
  Q 207.87 661.80 207.15 667.30
  Q 207.07 667.87 207.62 668.03
  Q 210.81 669.01 213.86 670.26
  C 217.00 671.54 220.97 672.14 224.49 673.60
  C 227.85 674.99 231.27 675.15 234.66 676.24
  C 240.49 678.11 245.99 678.24 251.76 679.82
  Q 259.68 681.97 267.96 681.64
  A 0.92 0.91 12.1 0 0 268.72 681.15
  C 271.62 675.52 274.07 668.68 278.21 664.12
  C 281.22 660.80 284.36 657.54 288.53 655.60
  C 296.81 651.75 303.95 648.11 313.92 651.37
  C 317.83 652.65 321.35 653.13 324.67 655.62
  Q 333.23 662.06 339.15 671.04
  A 2.01 1.95 27.1 0 1 339.46 671.95
  Q 339.62 673.98 341.20 675.28
  A 1.37 1.36 -77.5 0 1 341.67 676.02
  C 342.99 681.23 344.45 686.72 343.73 692.00
  Q 342.19 703.32 335.20 712.22
  C 331.49 716.94 325.44 720.12 320.31 723.58
  Q 319.33 724.24 319.54 726.03
  Q 320.09 730.91 321.60 735.57
  C 322.82 739.36 323.21 743.64 324.23 746.54
  C 327.82 756.81 330.73 767.15 335.67 777.18
  C 343.02 792.11 350.34 804.21 366.34 810.69
  C 375.10 814.24 393.18 814.10 402.11 811.15
  C 408.09 809.17 412.59 807.79 419.59 804.40
  Q 419.97 804.22 422.43 803.29
  C 424.52 802.49 425.78 801.03 427.71 800.25
  Q 429.81 799.40 430.51 798.98
  C 438.12 794.36 445.71 789.86 452.66 784.27
  C 455.50 781.99 458.74 780.29 461.36 778.10
  Q 469.08 771.66 476.96 765.42
  C 482.15 761.31 486.89 755.97 492.09 751.61
  A 2.43 2.42 44.9 0 0 492.08 747.89
  C 487.39 744.00 482.97 738.33 479.96 735.08
  C 473.08 727.67 465.64 720.55 459.78 712.28
  Q 456.98 708.32 453.84 704.63
  C 450.62 700.84 447.95 696.18 444.46 692.28
  C 441.58 689.07 440.06 685.16 437.03 681.91
  C 435.30 680.06 434.55 678.22 433.24 676.15
  Q 432.97 675.72 432.49 675.56
  Q 430.58 674.91 429.05 675.53
  Q 422.97 677.95 417.42 678.70
  C 413.24 679.26 409.50 681.06 405.50 681.52
  C 400.12 682.13 395.51 684.14 390.48 684.53
  Q 383.42 685.08 376.57 686.83
  C 371.06 688.23 365.48 688.15 359.84 689.54
  Q 358.96 689.75 358.54 688.94
  C 357.36 686.61 352.12 675.29 357.69 675.19
  C 364.44 675.06 369.49 672.81 375.94 672.01
  C 381.63 671.30 387.69 669.15 394.00 668.55
  C 399.10 668.07 403.75 665.97 408.94 665.18
  C 413.38 664.50 417.16 662.38 421.84 662.19
  A 0.58 0.58 0.0 0 0 422.33 661.33
  Q 416.09 649.80 409.72 639.21
  C 406.24 633.41 403.33 627.45 399.83 621.75
  C 395.89 615.36 393.55 608.34 387.53 603.58
  C 385.03 601.61 381.95 601.17 379.25 598.87
  Q 378.87 598.54 378.37 598.47
  Q 375.34 598.01 373.05 595.91
  Q 372.66 595.55 372.13 595.45
  C 368.32 594.67 367.03 592.28 363.65 591.59
  Q 363.15 591.49 362.76 591.17
  C 358.81 587.95 352.81 586.71 348.71 583.75
  C 346.50 582.16 343.75 581.18 341.55 579.80
  Q 339.28 578.36 336.34 577.03
  Q 334.76 576.31 334.25 577.98
  Q 333.00 582.14 332.66 586.94
  C 332.35 591.34 330.13 594.49 329.83 598.45
  C 329.44 603.63 327.35 608.37 326.81 613.05
  C 326.35 616.95 326.14 620.21 324.87 624.22
  Q 322.60 631.43 323.37 638.85
  A 1.53 1.52 -89.3 0 1 321.67 640.52
  L 308.14 638.81
  A 0.74 0.73 -86.5 0 1 307.50 638.08
  C 307.51 632.03 310.14 628.03 310.27 622.06
  C 310.39 616.54 312.57 612.01 313.20 606.99
  C 313.61 603.77 313.70 600.09 315.18 597.14
  C 316.76 593.98 316.64 590.02 317.07 586.56
  Q 317.35 584.34 318.65 581.07
  Q 321.02 575.08 320.51 568.48
  Q 320.47 568.01 320.13 567.68
  C 316.80 564.45 312.89 563.27 309.55 560.39
  C 306.47 557.75 302.72 556.00 299.87 553.76
  C 294.64 549.66 290.75 547.35 286.54 543.98
  C 281.89 540.27 277.17 537.58 272.84 533.73
  C 267.40 528.89 262.01 525.78 257.27 521.19
  Q 252.49 516.55 247.29 512.07
  A 1.96 1.94 -43.6 0 0 244.81 512.02
  Q 237.71 517.64 230.62 523.71
  C 226.42 527.30 223.48 528.97 224.23 535.46
  C 224.93 541.43 225.01 549.05 221.89 554.37
  C 220.87 556.10 220.52 558.09 219.32 559.61
  C 215.87 563.96 212.01 567.53 206.83 569.77
  C 204.45 570.79 202.40 572.18 199.82 572.52
  C 190.50 573.77 180.60 573.52 172.62 567.46
  C 160.56 558.31 157.44 546.21 160.09 531.52
  C 160.56 528.94 162.03 527.22 162.98 524.65
  C 164.73 519.97 171.27 514.38 175.20 511.39
  C 178.30 509.03 181.62 508.42 185.32 507.11
  C 190.84 505.16 195.64 505.55 201.14 507.67
  C 203.64 508.63 206.11 509.10 208.35 510.57
  Q 212.22 513.10 215.51 515.37
  A 2.54 2.54 0.0 0 0 218.64 515.18
  L 233.25 502.31
  A 1.22 1.22 0.0 0 0 233.29 500.52
  Q 219.30 487.05 205.89 472.80
  C 201.57 468.21 197.79 462.02 193.15 456.95
  Q 190.58 454.15 188.28 450.72
  Q 186.44 447.98 183.26 443.53
  Q 170.73 426.02 161.93 403.31
  Q 161.00 400.91 159.84 395.90
  C 159.05 392.47 157.55 389.26 157.18 385.95
  C 156.66 381.27 155.80 370.29 157.88 366.16
  C 159.67 362.63 159.98 359.15 161.94 355.71
  C 163.31 353.31 163.78 350.85 165.47 348.73
  C 172.86 339.47 182.06 329.68 192.82 324.40
  C 199.79 320.98 206.59 318.02 214.20 316.34
  C 216.88 315.75 219.11 314.36 221.75 313.91
  C 227.76 312.90 233.32 310.95 239.40 310.41
  C 246.93 309.73 254.45 307.70 261.68 307.45
  Q 283.56 306.69 305.23 307.08
  Q 307.34 307.12 307.29 305.02
  C 307.08 296.81 307.09 289.20 308.87 280.80
  C 311.62 267.74 308.24 253.20 313.77 240.90
  Q 313.98 240.43 314.51 240.38
  Q 320.17 239.92 325.31 242.26
  A 1.55 1.55 0.0 0 1 326.21 243.62
  Q 326.41 250.02 326.03 256.13
  C 325.62 262.78 323.34 271.98 323.31 279.56
  Q 323.26 292.76 323.19 305.80
  A 1.20 1.20 0.0 0 0 324.35 307.00
  C 336.13 307.37 347.90 306.38 359.31 309.11
  C 363.91 310.22 368.45 310.21 373.09 310.58
  C 380.21 311.15 387.07 313.51 394.56 313.85
  Q 395.90 313.91 398.27 314.81
  C 403.17 316.68 408.26 316.29 412.87 317.58
  C 416.15 318.51 418.87 319.42 422.55 319.99
  Q 426.75 320.64 430.22 322.48
  Q 431.12 322.95 431.82 322.21
  Q 435.74 318.02 438.18 313.48
  C 439.96 310.18 442.76 307.95 444.63 304.70
  C 448.02 298.84 452.87 293.96 456.73 288.33
  C 459.43 284.38 463.09 281.04 465.97 277.00
  Q 471.75 268.90 478.60 261.71
  C 483.08 257.01 486.57 251.27 491.54 246.61
  C 493.07 245.18 493.79 242.69 492.26 241.24
  Q 486.52 235.77 480.76 230.33
  C 473.51 223.48 465.05 216.54 457.25 209.51
  Q 454.11 206.67 449.40 203.49
  C 445.72 201.01 442.20 198.00 438.65 195.78
  C 427.80 188.98 416.74 181.71 404.05 178.39
  Q 403.58 178.27 403.20 177.95
  Q 401.92 176.88 399.49 176.50
  Q 385.39 174.29 372.79 176.02
  Q 370.43 176.34 367.47 177.78
  C 365.14 178.92 362.55 179.71 360.49 180.78
  Q 353.64 184.33 348.69 189.68
  Q 347.78 190.66 348.03 191.98
  C 349.17 198.19 350.76 212.63 346.91 217.98
  C 341.57 225.39 333.49 232.84 323.73 233.60
  C 315.87 234.21 310.03 231.52 303.64 227.44
  C 298.19 223.98 294.45 216.06 292.45 210.31
  C 289.07 200.60 295.20 188.61 302.67 182.06
  C 304.99 180.03 307.79 179.04 310.65 177.41
  C 314.53 175.20 324.49 175.21 328.56 176.90
  C 331.81 178.25 336.02 181.43 339.03 177.75
  C 343.16 172.70 351.74 168.18 357.59 165.37
  C 361.27 163.61 365.95 162.70 370.25 161.18
  C 376.38 159.00 384.87 160.06 391.38 159.98
  C 395.34 159.93 398.94 161.26 402.15 162.02
  C 428.30 168.27 448.49 183.94 469.38 199.86
  Z
  M 478.76 284.53
  Q 477.13 286.36 476.52 287.28
  C 472.21 293.78 466.69 299.05 462.46 305.52
  Q 460.17 309.03 457.48 312.25
  C 453.97 316.46 451.46 321.17 447.89 325.32
  A 1.25 1.24 -61.3 0 0 448.47 327.32
  Q 474.24 335.12 499.79 344.83
  C 501.89 345.63 505.42 346.08 507.19 345.43
  Q 523.83 339.28 540.49 333.13
  C 545.35 331.34 553.73 328.72 560.13 325.73
  A 1.18 1.17 66.5 0 0 560.72 324.22
  C 559.04 320.14 555.49 317.06 553.22 313.25
  C 550.86 309.30 547.78 306.06 545.03 302.09
  C 540.88 296.09 535.71 291.12 531.54 285.26
  C 524.20 274.96 514.07 266.02 505.35 256.42
  Q 504.29 255.25 503.23 256.42
  C 498.17 262.01 492.92 267.17 488.13 273.32
  Q 483.64 279.08 478.76 284.53
  Z
  M 251.38 486.34
  C 259.04 480.61 266.14 474.14 273.99 468.73
  C 278.05 465.93 281.52 462.64 285.69 459.81
  C 295.39 453.21 305.24 445.84 317.35 438.20
  C 318.40 437.53 320.65 436.53 321.92 435.16
  A 2.26 2.26 0.0 0 0 322.16 432.39
  C 319.59 428.42 320.13 422.85 318.47 418.23
  C 316.25 412.08 317.20 406.29 315.26 400.13
  Q 313.31 393.96 313.36 386.75
  C 313.38 383.40 311.73 379.72 311.28 376.80
  C 310.88 374.20 310.49 371.77 310.50 369.05
  Q 310.55 355.37 308.56 341.54
  A 1.86 1.85 85.3 0 1 310.35 339.42
  L 322.44 339.18
  Q 323.11 339.17 323.16 339.83
  C 323.54 344.20 323.61 348.44 324.42 352.82
  Q 326.22 362.48 326.60 373.68
  C 326.78 378.86 328.73 384.46 329.26 389.14
  C 329.73 393.31 329.61 397.49 331.16 401.51
  C 333.55 407.69 332.21 414.30 334.71 420.48
  Q 335.69 422.88 336.54 425.38
  Q 336.71 425.87 337.23 425.81
  C 341.06 425.34 344.86 421.49 348.39 419.67
  C 360.48 413.40 372.33 406.71 384.48 400.52
  C 391.25 397.08 391.44 392.39 395.77 386.26
  C 396.73 384.91 396.98 382.63 398.34 380.68
  Q 399.79 378.62 400.43 376.13
  A 2.24 2.14 74.9 0 1 400.94 375.19
  Q 403.03 372.94 403.62 369.90
  Q 403.72 369.36 404.07 368.95
  Q 406.09 366.62 406.79 363.61
  Q 406.92 363.07 407.29 362.65
  C 410.03 359.52 409.86 356.37 413.41 352.59
  Q 413.76 352.21 414.27 352.13
  Q 420.34 351.15 425.47 354.32
  A 1.36 1.31 10.4 0 1 426.07 355.16
  Q 426.44 356.82 425.76 358.28
  C 421.98 366.39 418.72 375.77 413.28 382.90
  A 0.41 0.40 8.0 0 0 413.75 383.52
  Q 414.75 383.14 415.82 383.25
  A 1.72 1.71 34.1 0 0 416.82 383.06
  Q 430.15 376.02 439.84 372.11
  C 443.11 370.79 446.21 369.09 448.72 368.11
  Q 460.55 363.47 472.34 358.73
  Q 477.32 356.72 481.60 354.10
  A 0.67 0.67 0.0 0 0 481.34 352.86
  Q 478.65 352.50 475.92 351.91
  C 472.82 351.26 469.50 349.36 465.95 348.65
  C 463.67 348.19 462.11 347.49 460.13 346.64
  C 456.58 345.11 453.17 345.34 449.68 342.83
  A 1.53 1.52 -26.1 0 0 448.88 342.56
  C 442.77 342.23 437.75 339.21 431.45 338.64
  C 429.19 338.43 427.79 336.68 425.26 336.34
  C 421.80 335.87 419.02 335.55 415.39 334.33
  C 410.26 332.61 404.86 332.92 399.64 330.84
  C 395.53 329.21 391.12 329.62 386.85 328.36
  Q 381.90 326.89 379.66 326.66
  C 373.83 326.05 368.71 326.50 362.40 324.70
  C 358.58 323.61 355.44 323.27 351.75 323.21
  C 340.66 323.04 329.34 323.45 318.30 322.49
  C 309.26 321.71 300.70 320.84 291.19 321.90
  C 278.74 323.29 266.72 323.17 254.41 323.58
  C 248.26 323.79 242.11 326.12 235.70 326.53
  C 231.18 326.83 227.28 328.61 222.86 329.40
  C 219.19 330.06 216.39 331.35 212.95 332.39
  C 198.60 336.74 180.21 347.55 175.45 363.17
  C 174.99 364.66 173.53 366.16 173.28 368.11
  C 172.10 377.47 172.55 385.62 175.37 395.05
  Q 178.21 404.54 180.44 408.80
  Q 182.38 412.53 183.00 414.64
  Q 183.15 415.11 183.47 415.48
  C 185.41 417.66 186.35 420.68 187.52 422.61
  Q 200.42 443.76 212.80 457.45
  Q 219.83 465.22 244.84 489.94
  A 1.13 1.13 0.0 0 0 245.66 490.27
  C 248.59 490.17 249.66 487.62 251.38 486.34
  Z
  M 528.94 354.68
  C 541.62 360.62 555.85 366.35 567.32 371.62
  Q 576.85 376.00 586.37 380.43
  C 588.49 381.42 590.97 383.12 593.48 384.33
  A 0.94 0.94 0.0 0 0 594.68 382.99
  Q 592.90 380.15 591.60 376.71
  C 590.94 374.97 589.67 373.71 588.93 371.90
  C 586.55 366.09 583.21 360.52 580.38 354.90
  C 578.04 350.27 573.61 345.15 572.23 340.36
  A 2.06 2.06 0.0 0 0 569.33 339.09
  C 561.81 342.84 553.24 344.09 545.67 347.61
  C 542.46 349.11 538.64 349.50 535.23 350.95
  C 532.88 351.95 530.26 352.13 527.84 353.28
  A 0.63 0.63 0.0 0 0 527.83 354.41
  C 528.16 354.57 528.55 354.50 528.94 354.68
  Z
  M 399.95 589.65
  C 402.86 595.71 417.67 601.02 426.56 604.94
  Q 462.25 620.66 487.63 630.10
  C 493.33 632.22 498.98 634.13 504.60 636.44
  A 1.37 1.34 45.6 0 0 505.58 636.46
  Q 513.66 633.34 521.70 630.13
  C 534.05 625.20 546.63 620.51 558.76 615.06
  C 564.53 612.47 570.47 610.52 576.71 607.70
  C 586.06 603.47 595.54 599.95 604.64 595.08
  C 607.90 593.33 610.09 588.05 611.52 584.78
  C 612.40 582.77 613.87 580.94 614.61 578.62
  C 615.33 576.36 616.72 575.07 617.53 572.83
  Q 618.65 569.73 618.67 569.68
  Q 634.08 534.42 638.72 523.02
  Q 641.68 515.75 643.07 513.08
  A 1.82 1.80 58.0 0 0 643.26 512.23
  C 643.20 509.84 645.14 508.52 645.67 506.99
  Q 648.25 499.54 644.23 492.70
  C 643.23 490.99 643.11 489.07 642.21 487.27
  Q 640.35 483.54 640.30 483.41
  C 630.23 457.73 619.47 432.21 607.55 407.33
  A 1.55 1.55 0.0 0 0 606.88 406.63
  C 598.30 402.07 589.31 398.56 580.67 394.19
  C 579.29 393.49 577.62 393.25 576.15 392.37
  C 571.02 389.33 564.80 387.46 559.36 384.86
  C 557.66 384.05 555.66 383.66 553.89 382.69
  Q 551.10 381.18 549.99 380.78
  C 543.40 378.39 539.10 375.97 534.48 374.46
  Q 532.20 373.71 531.20 373.12
  C 528.12 371.29 524.79 370.98 521.69 369.24
  C 518.91 367.66 516.24 367.78 513.64 365.56
  A 0.60 0.55 69.2 0 0 513.42 365.45
  L 503.93 363.26
  A 0.58 0.58 0.0 0 0 503.67 363.26
  C 497.79 364.78 492.12 366.49 486.72 369.33
  C 483.83 370.85 480.22 371.88 477.75 372.94
  Q 465.94 377.97 454.10 382.89
  Q 432.43 391.90 411.35 402.16
  C 401.85 406.79 400.25 410.96 395.09 421.39
  Q 382.24 447.38 371.82 474.44
  Q 371.61 474.98 370.97 477.17
  C 370.28 479.52 368.93 481.40 368.33 483.70
  Q 367.56 486.66 366.19 489.40
  C 364.24 493.30 364.70 496.80 362.20 500.74
  Q 361.93 501.18 361.96 501.69
  C 362.12 503.96 363.69 505.58 364.19 507.37
  C 364.97 510.20 365.43 512.77 366.61 515.47
  C 367.87 518.36 371.82 525.93 371.76 528.72
  Q 371.75 529.22 372.04 529.63
  C 373.70 531.96 374.62 535.00 375.49 536.96
  C 378.37 543.41 381.09 550.18 384.01 556.31
  Q 391.95 573.00 399.95 589.65
  Z
  M 655.25 477.28
  L 655.25 477.70
  Q 655.25 478.12 655.66 478.23
  Q 656.72 478.51 656.04 476.68
  Q 655.88 476.24 656.21 475.92
  L 656.97 475.15
  Q 657.36 474.77 657.55 474.25
  Q 659.95 467.81 662.25 461.34
  C 663.17 458.73 665.50 454.21 666.13 450.09
  A 2.11 2.04 68.7 0 1 666.53 449.14
  Q 668.22 446.93 668.97 444.24
  A 1.81 1.81 0.0 0 0 668.25 442.27
  C 665.89 440.64 664.53 439.42 661.56 438.17
  C 659.87 437.46 658.29 435.92 657.02 435.12
  Q 646.23 428.36 634.99 422.41
  C 633.72 421.74 632.95 420.67 631.69 419.97
  A 0.56 0.56 0.0 0 0 631.09 420.92
  Q 633.80 422.82 633.54 426.17
  A 1.19 1.18 -60.0 0 0 633.74 426.92
  C 636.43 430.81 637.72 435.50 639.21 439.08
  Q 644.20 451.09 649.49 462.97
  Q 649.75 463.55 649.86 464.88
  A 1.60 1.59 -65.6 0 0 650.15 465.66
  Q 653.12 469.77 653.88 474.82
  Q 654.01 475.64 654.97 476.61
  Q 655.25 476.88 655.25 477.28
  Z
  M 354.00 480.08
  C 355.11 477.79 355.07 475.31 355.85 473.36
  C 356.91 470.71 358.07 466.92 359.43 464.46
  C 361.49 460.76 362.33 456.80 364.29 453.00
  C 364.94 451.73 364.91 450.09 365.67 448.80
  C 369.17 442.94 370.86 436.34 373.94 430.30
  Q 375.43 427.39 377.07 424.58
  Q 377.66 423.57 377.42 422.71
  A 0.73 0.73 0.0 0 0 376.39 422.25
  Q 368.12 426.43 360.16 430.45
  C 357.72 431.69 354.76 433.76 351.81 435.01
  Q 350.77 435.46 348.13 437.12
  C 345.45 438.81 342.83 438.92 340.60 441.93
  A 0.91 0.91 0.0 0 0 340.49 442.81
  Q 342.00 446.61 342.84 450.60
  C 343.49 453.71 345.32 456.24 345.94 459.55
  C 346.66 463.46 348.74 466.56 349.50 470.52
  C 349.88 472.54 351.28 473.62 351.73 475.69
  Q 352.25 478.06 353.27 480.08
  A 0.41 0.41 0.0 0 0 354.00 480.08
  Z
  M 342.66 508.35
  C 342.99 505.02 347.34 503.83 344.87 499.95
  C 342.93 496.93 342.38 494.54 341.60 491.16
  Q 341.49 490.67 341.14 490.30
  C 339.16 488.19 338.46 483.51 337.20 480.65
  C 334.90 475.43 333.64 469.53 331.50 464.29
  C 329.77 460.06 329.07 455.91 327.29 451.95
  A 1.50 1.50 0.0 0 0 324.97 451.41
  C 322.23 453.67 319.17 454.43 316.60 456.52
  C 313.28 459.23 309.46 461.03 306.07 463.49
  C 302.20 466.31 298.04 468.86 293.40 472.72
  C 290.29 475.31 285.94 477.61 282.50 480.65
  C 277.30 485.25 271.53 488.76 266.45 493.57
  Q 262.63 497.19 258.63 500.51
  Q 258.22 500.85 258.61 501.22
  Q 274.87 516.58 292.95 529.72
  Q 295.39 531.49 299.83 535.03
  C 304.03 538.37 308.72 541.36 313.10 544.55
  C 315.97 546.64 321.38 549.63 324.89 553.28
  A 0.62 0.62 0.0 0 0 325.95 552.91
  C 326.37 548.64 328.40 545.70 329.45 541.63
  C 330.34 538.19 332.24 535.37 333.09 531.87
  C 333.74 529.15 335.42 527.30 336.23 524.53
  C 337.31 520.82 339.36 517.94 340.20 514.00
  A 2.07 1.98 72.6 0 1 340.62 513.15
  Q 342.40 511.03 342.66 508.35
  Z
  M 747.56 499.94
  Q 739.58 494.15 730.71 486.21
  C 726.13 482.12 720.72 478.61 715.88 474.52
  Q 713.40 472.42 709.15 469.60
  C 704.91 466.79 701.93 463.30 697.14 460.73
  C 693.36 458.70 690.90 455.49 686.66 453.71
  C 685.25 453.12 684.46 452.27 683.34 451.37
  A 0.67 0.66 27.9 0 0 682.28 451.69
  C 680.04 459.27 676.68 467.36 674.21 474.03
  Q 672.32 479.15 670.15 484.16
  C 669.09 486.58 668.71 489.51 667.49 492.04
  C 664.74 497.73 663.99 502.23 666.27 508.28
  Q 676.26 534.72 682.51 551.94
  Q 682.67 552.35 683.03 552.11
  Q 698.95 541.75 714.36 530.63
  Q 718.37 527.73 723.99 522.74
  C 726.50 520.50 730.08 518.83 732.59 516.62
  C 737.45 512.36 741.66 508.27 747.10 504.70
  C 749.28 503.27 750.03 501.73 747.56 499.94
  Z
  M 174.22 545.50
  C 176.15 549.59 181.22 556.09 186.03 556.72
  C 196.86 558.14 204.22 556.75 208.83 545.88
  C 211.00 540.76 209.99 536.89 207.99 531.94
  C 203.92 521.91 192.72 518.81 183.51 523.43
  C 177.20 526.59 171.03 538.78 174.22 545.50
  Z
  M 341.43 562.61
  C 351.12 568.34 361.02 574.57 371.36 579.04
  Q 374.02 580.19 376.18 582.16
  A 0.78 0.78 0.0 0 0 377.48 581.67
  C 377.92 577.91 375.51 575.46 374.37 572.87
  Q 365.17 551.89 355.95 530.91
  C 355.09 528.94 354.70 526.86 354.01 524.77
  A 0.85 0.84 -44.9 0 0 352.41 524.77
  Q 350.05 531.64 347.03 538.66
  C 346.07 540.90 345.42 543.79 344.29 546.19
  C 342.25 550.51 341.60 554.74 339.61 558.99
  C 339.03 560.24 339.04 561.56 340.39 562.14
  Q 341.33 562.54 341.43 562.61
  Z
  M 654.17 524.67
  C 652.13 533.15 647.70 541.87 645.17 548.01
  Q 638.39 564.44 630.41 580.34
  Q 630.13 580.90 630.76 580.94
  Q 632.46 581.03 633.58 580.00
  Q 633.97 579.64 634.46 579.47
  Q 636.81 578.63 640.43 576.68
  C 651.95 570.47 660.16 565.91 667.91 562.25
  A 1.70 1.70 0.0 0 0 668.77 560.09
  Q 665.37 551.32 662.60 542.34
  C 661.53 538.89 659.66 535.02 658.64 531.12
  C 657.95 528.44 656.69 526.68 655.29 524.48
  A 0.62 0.62 0.0 0 0 654.17 524.67
  Z
  M 593.83 617.21
  C 590.57 617.78 587.70 619.73 585.16 620.66
  Q 580.52 622.36 575.96 624.28
  C 573.92 625.14 571.28 627.16 568.17 627.53
  A 1.67 1.66 -67.0 0 0 567.31 627.88
  C 565.20 629.55 562.51 630.14 560.74 630.90
  Q 556.49 632.71 552.19 634.39
  C 550.61 635.01 549.01 636.11 547.21 636.70
  C 541.98 638.42 537.00 640.86 531.99 643.12
  C 530.89 643.61 529.11 643.67 527.98 644.64
  Q 527.37 645.17 528.18 645.26
  Q 532.85 645.84 534.73 646.80
  C 538.48 648.73 543.46 649.91 546.31 650.89
  Q 556.97 654.57 567.66 658.17
  C 569.34 658.74 571.55 660.14 572.22 657.26
  C 572.90 654.37 574.16 653.35 575.23 651.37
  C 577.78 646.61 581.15 641.66 583.50 637.53
  Q 587.70 630.16 591.96 622.84
  C 592.96 621.13 597.41 618.12 594.57 616.30
  A 0.38 0.38 0.0 0 0 593.99 616.65
  Q 594.00 616.84 594.00 617.00
  Q 594.00 617.18 593.83 617.21
  Z
  M 481.28 644.22
  C 474.36 642.16 467.94 638.38 460.97 636.35
  C 458.38 635.59 455.97 633.67 452.88 633.20
  Q 452.38 633.13 451.99 632.82
  C 449.37 630.75 446.70 630.56 444.03 629.03
  C 440.95 627.27 437.80 626.86 434.87 625.03
  C 433.60 624.23 432.49 623.96 431.13 623.53
  C 428.42 622.66 426.84 620.80 423.67 620.30
  A 1.47 1.45 -18.0 0 1 422.85 619.89
  Q 420.22 617.36 416.51 617.46
  Q 414.73 617.51 416.02 618.73
  Q 418.87 621.42 419.70 625.30
  Q 419.81 625.84 420.18 626.25
  Q 421.13 627.30 422.05 628.94
  C 427.03 637.77 433.23 647.61 438.94 656.83
  Q 439.23 657.30 439.74 657.09
  Q 441.51 656.37 442.32 656.32
  C 447.47 656.01 451.45 653.46 456.34 652.65
  C 459.61 652.10 462.28 650.42 465.63 649.71
  C 471.07 648.57 475.12 646.05 480.94 645.59
  Q 481.50 645.54 481.50 644.98
  L 481.50 644.51
  A 0.30 0.30 0.0 0 0 481.28 644.22
  Z
  M 194.39 651.75
  A 26.60 26.60 0.0 0 0 167.79 625.15
  A 26.60 26.60 0.0 0 0 141.19 651.75
  A 26.60 26.60 0.0 0 0 167.79 678.35
  A 26.60 26.60 0.0 0 0 194.39 651.75
  Z
  M 507.55 738.82
  C 517.95 727.91 527.63 716.17 537.76 704.99
  C 540.90 701.52 543.54 697.07 546.71 693.25
  C 552.09 686.77 556.19 679.86 562.00 673.73
  Q 562.41 673.30 561.90 673.00
  Q 559.66 671.71 557.35 670.58
  C 554.04 668.96 549.88 668.68 546.16 666.91
  C 543.05 665.42 540.22 665.11 536.55 663.41
  C 531.58 661.11 524.85 660.04 519.48 657.22
  C 517.02 655.93 514.36 655.91 511.94 654.44
  C 507.49 651.74 502.48 652.13 497.99 654.39
  C 495.05 655.86 492.07 656.20 489.23 657.79
  C 487.32 658.87 485.90 659.07 483.89 659.45
  C 480.73 660.04 478.22 661.95 474.90 662.60
  C 471.68 663.23 469.31 664.87 465.90 665.48
  Q 462.86 666.02 460.11 667.40
  C 456.62 669.15 452.69 669.04 448.93 669.74
  A 0.70 0.70 0.0 0 0 448.52 670.89
  C 450.52 673.19 451.39 676.15 453.25 678.38
  C 461.03 687.67 467.27 698.05 475.31 707.09
  C 484.95 717.93 493.49 728.86 504.18 738.80
  Q 505.97 740.47 507.55 738.82
  Z
  M 287.42 701.63
  C 294.70 710.49 302.03 712.42 312.87 710.01
  C 317.50 708.99 321.45 704.42 324.47 700.98
  C 327.13 697.95 329.34 690.87 328.25 687.00
  C 326.34 680.18 326.04 676.14 320.61 671.07
  C 318.65 669.24 316.38 668.59 313.98 667.40
  C 307.51 664.20 301.78 665.58 295.49 668.98
  C 290.18 671.85 289.14 674.17 285.97 678.49
  C 284.49 680.51 284.85 682.57 284.61 684.53
  C 283.98 689.64 283.96 697.42 287.42 701.63
  Z"></path>
<path fill="#000000" d="
  M 573.06 259.16
  C 569.85 258.89 564.57 253.11 562.79 250.94
  C 557.39 244.33 558.23 231.49 563.60 225.14
  C 573.47 213.46 589.59 215.26 597.43 228.30
  C 600.36 233.16 601.64 238.49 599.59 244.12
  C 597.97 248.58 595.64 254.20 591.32 256.69
  C 588.89 258.09 587.29 259.19 584.32 259.31
  Q 578.03 259.57 573.06 259.16
  Z"></path>
<path fill="#000000" d="
  M 661.44 342.06
  C 657.88 339.82 655.02 334.62 652.62 331.22
  C 649.50 326.81 646.71 320.03 646.41 314.64
  C 646.05 308.02 645.30 297.06 647.95 292.30
  Q 648.83 290.70 649.50 288.49
  C 650.15 286.35 651.46 284.73 652.24 283.34
  C 659.56 270.23 672.18 262.86 686.99 259.53
  Q 692.65 258.26 698.97 259.86
  Q 702.22 260.69 707.55 262.25
  C 712.31 263.64 715.71 266.17 719.70 268.59
  C 728.20 273.74 734.94 285.60 738.00 294.72
  C 741.50 305.16 739.04 319.02 733.82 328.67
  C 727.16 341.01 715.45 350.38 701.29 352.30
  C 698.46 352.68 695.60 353.61 692.85 353.52
  C 686.95 353.31 679.61 352.63 674.40 349.64
  C 672.63 348.63 670.72 348.57 669.12 347.36
  Q 665.39 344.55 661.44 342.06
  Z
  M 672.74 331.75
  C 685.18 341.53 697.38 340.33 710.47 332.95
  C 716.39 329.62 718.21 325.18 721.57 320.00
  C 724.56 315.40 724.11 299.90 722.14 294.83
  C 719.79 288.77 715.52 284.31 709.97 279.90
  C 707.69 278.10 704.75 277.75 702.21 275.84
  A 1.91 1.91 0.0 0 0 701.32 275.49
  C 694.46 274.75 686.12 274.23 679.82 277.33
  C 672.71 280.84 664.51 287.85 662.44 295.89
  C 661.35 300.09 659.99 303.99 660.54 308.33
  C 661.76 317.78 665.03 325.69 672.74 331.75
  Z"></path>
<path fill="#000000" d="
  M 456.35 554.41
  C 449.39 548.17 442.81 541.09 438.79 532.59
  C 431.53 517.25 430.14 503.48 432.18 486.42
  Q 432.40 484.61 433.58 482.32
  C 435.27 479.03 435.35 475.42 436.75 472.33
  C 445.81 452.24 460.97 439.13 481.47 431.57
  Q 486.92 429.56 493.21 428.94
  Q 507.44 427.53 517.34 428.91
  Q 524.65 429.93 536.71 435.65
  C 554.30 443.99 566.78 457.32 573.57 475.65
  C 578.29 488.38 577.98 501.76 575.67 514.60
  Q 575.36 516.32 574.34 518.77
  C 573.08 521.82 572.78 524.95 571.40 527.83
  Q 570.66 529.40 569.99 530.99
  C 568.92 533.52 567.26 535.51 566.03 537.97
  Q 564.83 540.35 563.59 541.83
  C 552.29 555.33 539.81 565.47 522.44 569.85
  C 519.27 570.65 516.56 572.27 513.39 572.49
  Q 503.74 573.14 494.10 572.51
  C 490.39 572.26 486.97 570.22 483.12 569.56
  Q 480.34 569.09 478.20 568.08
  C 475.17 566.65 472.18 565.77 469.40 564.01
  C 464.44 560.88 460.74 558.35 456.35 554.41
  Z
  M 472.03 452.54
  C 466.28 455.30 454.92 467.23 453.64 471.97
  C 453.29 473.26 452.09 473.82 451.62 475.21
  C 450.45 478.69 448.61 481.50 448.01 485.10
  C 447.15 490.26 445.47 495.45 445.85 500.54
  C 447.60 523.96 459.16 543.06 480.95 552.29
  C 483.47 553.36 486.70 554.02 489.58 555.17
  C 496.27 557.84 506.35 557.12 513.48 556.66
  C 516.88 556.44 519.70 555.04 522.93 554.01
  C 531.88 551.15 543.26 544.07 548.72 536.30
  C 552.09 531.51 555.35 527.53 557.33 521.93
  Q 557.35 521.87 559.18 517.89
  C 560.08 515.92 560.09 513.70 560.80 511.84
  Q 564.73 501.57 561.92 490.03
  C 559.23 479.04 555.54 470.30 547.67 462.04
  C 541.05 455.09 535.13 450.68 525.26 446.72
  Q 521.44 445.18 517.47 444.84
  Q 503.32 443.62 489.19 445.15
  C 483.27 445.80 477.28 450.02 472.03 452.54
  Z"></path>
<path fill="#000000" d="
  M 492.73 488.43
  C 492.78 482.29 491.93 474.40 493.12 468.50
  Q 493.21 468.04 493.56 467.71
  Q 496.64 464.89 497.81 464.57
  C 505.47 462.42 516.23 462.94 523.59 466.65
  Q 536.86 473.32 542.03 488.20
  Q 545.69 498.72 543.27 508.52
  C 541.73 514.72 538.62 521.61 534.25 526.67
  C 525.34 536.97 507.21 545.63 493.03 538.91
  C 490.69 537.80 488.22 537.13 486.19 535.66
  C 475.67 528.08 468.49 517.46 470.66 503.94
  A 1.71 1.70 70.6 0 1 471.07 503.08
  C 475.19 498.49 480.08 496.56 484.88 493.23
  Q 488.36 490.81 492.26 489.14
  Q 492.72 488.94 492.73 488.43
  Z"></path>
<path fill="#000000" d="
  M 161.93 607.26
  C 159.53 606.69 161.03 602.50 162.07 601.37
  Q 162.41 601.01 162.54 600.53
  C 164.43 593.91 168.07 587.06 170.77 580.66
  Q 170.96 580.20 171.41 579.98
  Q 175.12 578.16 178.53 579.78
  C 183.86 582.31 174.18 599.83 172.56 603.60
  C 170.20 609.12 167.03 608.47 161.93 607.26
  Z"></path>
<circle fill="#d5c268" cx="167.79" cy="651.75" r="26.60"></circle>
<path fill="#000000" d="
  M 655.90 752.86
  C 651.74 749.44 649.39 745.01 646.54 741.04
  Q 643.99 737.48 643.66 735.80
  C 642.75 731.21 640.57 727.05 640.16 722.65
  C 639.63 717.05 638.63 705.55 641.38 700.63
  Q 643.19 697.39 643.46 693.56
  A 1.52 1.52 0.0 0 1 643.80 692.69
  Q 645.13 691.00 647.22 686.99
  C 651.50 678.76 665.18 668.76 675.88 665.80
  C 683.87 663.60 689.10 661.81 697.46 664.28
  C 701.18 665.38 704.44 665.52 708.06 667.43
  C 709.96 668.44 712.12 669.09 713.83 670.07
  Q 731.82 680.30 738.09 699.78
  C 739.88 705.33 740.47 724.40 737.69 729.39
  C 736.28 731.91 735.78 734.76 734.56 737.10
  C 730.57 744.76 727.68 749.57 721.39 754.88
  Q 717.20 758.42 708.44 762.68
  Q 704.99 764.35 701.33 764.79
  C 692.33 765.85 680.17 766.54 671.71 762.72
  Q 663.18 758.86 655.90 752.86
  Z
  M 691.4001 750.7499
  A 36.09 35.04 87.3 0 0 724.7011 713.0494
  A 36.09 35.04 87.3 0 0 687.9999 678.6501
  A 36.09 35.04 87.3 0 0 654.6989 716.3506
  A 36.09 35.04 87.3 0 0 691.4001 750.7499
  Z"></path>
<ellipse fill="#d5c268" cx="0.00" cy="0.00" transform="translate(689.70,714.70) rotate(87.3)" rx="36.09" ry="35.04"></ellipse>
</svg></svg></g></svg>