<?xml version="1.0" standalone="no"?>
<!DOCTYPE svg PUBLIC "-//W3C//DTD SVG 20010904//EN"
 "http://www.w3.org/TR/2001/REC-SVG-20010904/DTD/svg10.dtd">
<svg version="1.0" xmlns="http://www.w3.org/2000/svg"
 width="806.000000pt" height="806.000000pt" viewBox="0 0 806.000000 806.000000"
 preserveAspectRatio="xMidYMid meet">
<metadata>
Created by potrace 1.14, written by Peter Selinger 2001-2017
</metadata>
<g transform="translate(0.000000,806.000000) scale(0.100000,-0.100000)"
fill="#000000" stroke="none">
<path d="M3015 6903 c-214 -36 -372 -103 -505 -212 -244 -201 -371 -464 -386
-801 -5 -104 -9 -121 -38 -181 -43 -86 -96 -157 -123 -165 -11 -3 -31 0 -44 6
-61 33 -197 14 -269 -38 -38 -27 -140 -131 -140 -143 0 -4 -21 -17 -47 -29
-27 -12 -55 -28 -64 -36 -9 -8 -49 -26 -90 -40 -111 -38 -253 -108 -323 -158
-185 -133 -331 -341 -387 -551 -27 -103 -34 -296 -14 -381 8 -32 19 -108 25
-169 24 -258 128 -479 302 -641 179 -165 387 -245 620 -237 81 2 89 1 103 -20
57 -80 99 -135 125 -163 34 -38 36 -46 16 -77 -12 -18 -12 -28 -2 -57 9 -26
11 -132 10 -397 -2 -314 -1 -362 12 -367 9 -3 12 -10 9 -16 -4 -6 1 -7 11 -3
13 5 15 3 10 -8 -5 -9 -3 -8 6 2 7 9 19 14 26 12 6 -3 12 0 12 5 0 6 8 12 17
14 17 3 18 30 19 371 0 203 -3 370 -7 373 -4 2 -5 13 -2 24 8 31 45 20 84 -25
45 -53 57 -65 62 -65 2 0 26 -21 53 -47 50 -48 174 -133 193 -133 14 0 13 28
16 -303 3 -244 6 -292 19 -312 10 -15 26 -25 39 -25 19 1 20 2 6 13 -9 7 -20
21 -26 32 -12 24 -18 565 -6 565 4 0 44 -11 88 -24 l80 -23 3 -318 c3 -345 6
-368 58 -396 20 -10 25 -19 21 -42 -2 -15 0 -30 5 -33 4 -3 8 -64 8 -137 0
-99 3 -128 11 -120 8 8 13 67 15 165 1 84 3 155 3 158 1 3 13 7 28 8 38 3 71
28 80 60 8 27 10 509 3 612 l-4 55 79 28 c44 16 93 31 110 34 30 6 57 31 49
45 -3 4 1 6 8 3 9 -4 13 -29 13 -85 0 -44 2 -80 5 -80 8 0 6 -53 -3 -67 -4 -6
-3 -15 3 -18 7 -4 7 -12 2 -18 -17 -24 0 -93 19 -81 8 4 9 3 5 -5 -4 -6 -12
-9 -17 -6 -9 6 -11 -5 -12 -52 -1 -12 -4 -20 -7 -18 -3 2 -6 76 -6 164 1 89
-2 161 -5 161 -3 0 -5 19 -3 43 2 28 0 37 -6 27 -5 -8 -6 -18 -3 -24 4 -5 -1
-7 -11 -3 -13 5 -15 3 -8 -9 5 -9 6 -31 2 -49 -4 -19 -7 -173 -6 -343 l1 -310
24 -26 c26 -28 50 -33 69 -14 9 9 18 9 38 -1 35 -15 59 -7 73 27 11 26 9 585
-2 655 -2 15 0 30 5 33 5 3 4 13 -4 22 -6 10 10 -3 36 -28 26 -25 74 -82 107
-126 117 -162 274 -284 454 -353 44 -17 86 -35 94 -39 12 -7 15 -49 15 -230 1
-122 4 -222 9 -222 4 0 10 0 15 0 4 0 8 78 9 173 1 94 2 199 2 231 l1 60 33
-30 c17 -17 48 -41 67 -54 19 -13 37 -27 40 -31 10 -12 85 -47 130 -59 68 -19
204 -14 280 9 109 34 220 119 220 169 0 12 6 22 13 22 7 0 26 13 42 30 16 16
32 30 36 30 4 0 7 -149 6 -331 -2 -297 1 -354 20 -335 3 3 5 167 5 366 -1 225
2 360 8 360 6 0 28 19 50 41 l40 41 1 -83 c1 -142 8 -313 14 -336 3 -12 13
-23 22 -25 16 -3 18 -20 18 -158 1 -138 -1 -158 -18 -184 -27 -39 -24 -83 8
-116 36 -38 100 -28 125 20 13 25 13 83 -1 97 -9 9 -7 11 7 9 10 -2 22 -16 28
-34 14 -40 24 -49 63 -55 22 -4 37 1 52 14 26 24 32 49 29 121 -2 31 -1 56 2
56 3 0 7 0 10 1 3 1 22 4 43 6 21 2 47 7 57 10 21 7 50 -19 50 -44 0 -25 61
-91 89 -96 76 -14 104 30 103 160 -1 91 -1 91 27 102 15 5 30 19 33 31 7 27
-12 65 -39 77 l-22 9 0 473 0 473 23 25 c28 30 36 30 128 6 40 -11 92 -25 115
-31 l41 -10 -2 -526 c-1 -289 2 -530 6 -537 4 -6 10 -8 14 -5 3 4 8 224 9 490
3 510 3 518 17 518 5 0 6 4 3 10 -3 5 0 7 9 4 13 -5 15 -80 14 -593 -1 -323 2
-593 6 -599 4 -7 1 -12 -7 -12 -22 0 -57 -39 -57 -65 0 -56 71 -84 110 -45 26
26 25 60 -2 89 -21 23 -21 26 -18 400 4 466 3 451 12 451 4 0 7 -8 7 -17 -2
-112 4 -184 14 -180 9 3 12 89 13 327 l0 324 45 34 c61 47 139 123 238 231
l84 92 101 -5 c278 -13 516 82 713 282 166 168 276 395 301 622 9 83 9 260 -1
325 -41 285 -181 522 -412 699 -44 33 -91 67 -104 75 -72 40 -164 82 -227 102
l-72 23 -7 51 c-8 64 -54 159 -102 211 -43 47 -141 116 -199 140 -114 49 -204
51 -292 7 l-52 -26 -27 24 c-41 36 -49 47 -87 127 -29 58 -37 87 -41 150 -15
247 -80 421 -222 594 -206 252 -494 389 -810 383 -59 -1 -127 -5 -151 -9 -89
-15 -249 -69 -332 -113 -78 -42 -234 -141 -277 -177 -58 -49 -97 -76 -107 -76
-6 0 -27 13 -46 28 -88 72 -170 132 -180 132 -5 0 -10 3 -10 8 0 8 -32 28
-145 87 -90 47 -208 88 -305 106 -62 11 -253 19 -295 12z m-1185 -4153 c0 -5
-2 -10 -4 -10 -3 0 -8 5 -11 10 -3 6 -1 10 4 10 6 0 11 -4 11 -10z m1235 -151
c-4 -5 0 -9 7 -10 8 0 9 -2 2 -5 -8 -3 -9 -16 -4 -39 6 -25 5 -33 -4 -28 -6 4
-5 -1 3 -10 7 -9 10 -17 6 -17 -4 0 -2 -7 5 -15 7 -8 16 -12 21 -9 5 3 9 2 8
-3 -1 -4 0 -10 1 -13 1 -3 3 -25 5 -50 2 -25 4 -45 5 -45 5 0 9 -105 10 -280
0 -201 -3 -272 -14 -282 -12 -12 -35 19 -40 55 -6 33 -16 277 -16 390 0 30 -4
41 -12 36 -8 -5 -8 -3 -2 7 13 21 13 72 -2 93 -7 10 -10 25 -7 33 5 12 7 12
14 1 6 -9 9 -9 9 -1 0 6 -4 15 -10 18 -5 3 -10 11 -10 16 0 6 4 8 8 5 5 -3 9
1 9 9 0 8 -4 12 -9 9 -4 -3 -8 0 -8 5 0 6 6 11 13 11 8 0 8 3 2 8 -12 8 -14
92 -3 92 4 0 5 9 3 20 -2 12 0 18 6 15 5 -4 7 -11 4 -16z m60 -38 c3 -5 2 -12
-3 -15 -5 -3 -9 1 -9 9 0 17 3 19 12 6z m15 -56 c0 -2 -6 -8 -13 -14 -10 -8
-14 -7 -14 2 0 8 6 14 14 14 7 0 13 -1 13 -2z m-493 -172 c5 -144 5 -144 12
-137 9 8 8 228 0 234 -12 9 7 33 20 26 8 -5 9 -47 5 -144 -4 -75 -7 -221 -8
-324 -1 -190 -6 -218 -39 -205 -12 4 -15 31 -17 129 -1 124 -7 283 -13 393 -2
33 -1 72 4 88 5 18 4 31 -5 40 -11 10 -10 14 3 24 9 7 20 8 25 3 5 -5 11 -62
13 -127z m-86 115 c1 -7 2 -38 4 -68 2 -30 6 -86 9 -125 8 -114 10 -464 2
-472 -15 -15 -36 32 -37 81 -4 367 -5 540 -1 565 4 30 21 43 23 19z m489 -98
c0 -5 -5 -10 -11 -10 -5 0 -7 5 -4 10 3 6 8 10 11 10 2 0 4 -4 4 -10z m2960
-10 c0 -5 -5 -10 -11 -10 -5 0 -7 5 -4 10 3 6 8 10 11 10 2 0 4 -4 4 -10z
m-2960 -40 c0 -5 -5 -10 -11 -10 -5 0 -7 5 -4 10 3 6 8 10 11 10 2 0 4 -4 4
-10z m-332 -67 c6 -128 7 -255 0 -270 -9 -24 -9 -22 -14 155 -3 83 -1 152 4
152 5 0 9 -17 10 -37z m277 -93 c3 -5 1 -10 -4 -10 -6 0 -11 5 -11 10 0 6 2
10 4 10 3 0 8 -4 11 -10z m2200 -9 c-3 -5 -2 -12 2 -14 5 -3 8 -124 8 -269 l0
-263 -30 3 c-44 5 -51 21 -45 98 4 38 6 131 5 207 0 76 3 141 7 143 5 3 6 9 3
14 -3 5 4 15 15 23 11 7 17 16 14 20 -6 6 13 47 22 47 3 0 3 -4 -1 -9z m-266
-68 c-1 -37 -3 -42 -8 -23 -7 24 -3 70 5 70 2 0 4 -21 3 -47z m-1934 14 c0 -7
8 -11 18 -9 16 3 16 1 -2 -17 -23 -23 -18 -56 8 -46 10 4 8 -1 -6 -14 -12 -12
-24 -21 -26 -21 -1 0 -3 29 -3 64 0 36 3 63 6 60 3 -3 5 -11 5 -17z m2492 -87
c0 -62 -4 -110 -9 -110 -5 0 -7 -4 -4 -8 2 -4 1 -14 -3 -21 -4 -7 -7 27 -6 76
1 48 3 88 5 88 1 0 3 18 5 40 1 22 3 41 4 43 6 11 8 -13 8 -108z m-212 -143
c0 -130 3 -237 7 -237 4 0 5 -7 1 -16 -7 -18 -48 -15 -47 4 1 6 2 120 3 253 1
223 2 240 19 237 16 -3 17 -23 17 -241z m-279 165 c7 -5 11 -96 12 -283 0
-231 -2 -277 -14 -275 -7 1 -16 4 -18 7 -3 3 -6 101 -6 219 -2 368 -3 352 26
332z m-1986 -62 c0 -5 -4 -10 -9 -10 -6 0 -13 5 -16 10 -3 6 1 10 9 10 9 0 16
-4 16 -10z m2042 -15 c3 -14 1 -25 -3 -25 -5 0 -9 11 -9 25 0 14 2 25 4 25 2
0 6 -11 8 -25z m-2022 -28 c0 -5 -7 -4 -15 3 -13 11 -14 10 -9 -4 3 -9 10 -16
15 -16 5 0 9 -11 9 -25 0 -17 -4 -23 -14 -19 -16 6 -16 -19 -1 -33 4 -4 5 -2
1 5 -4 6 -3 12 2 12 18 0 21 -28 5 -35 -25 -9 -31 4 -35 76 -4 66 -4 67 19 56
13 -6 23 -15 23 -20z m2026 -32 c1 -8 -2 -15 -7 -15 -5 0 -9 10 -9 22 0 23 12
17 16 -7z m1 -115 c0 -57 -5 -90 -11 -90 -7 0 -10 31 -8 90 2 49 7 90 12 90 4
0 8 -40 7 -90z m469 -15 c1 -8 -1 -17 -5 -19 -4 -3 -7 6 -7 19 0 25 8 25 12 0z
m-431 -183 c20 -11 14 -38 -16 -73 -27 -32 -37 -16 -39 61 -2 89 -2 89 19 53
11 -17 27 -35 36 -41z m86 -42 c17 0 19 -8 19 -59 0 -59 -12 -82 -46 -87 -23
-4 -47 42 -40 74 4 15 10 40 13 55 4 19 10 26 20 23 8 -3 23 -6 34 -6z"/>
<path d="M3074 2399 c0 -38 4 -69 9 -69 5 0 7 7 4 15 -4 8 -2 17 3 20 7 4 6
13 0 26 -6 10 -7 19 -2 19 13 0 12 38 -1 49 -10 7 -13 -6 -13 -60z"/>
<path d="M1777 1980 c-25 -36 -2 -90 39 -90 29 0 54 25 54 53 0 32 -12 46 -47
53 -24 5 -34 2 -46 -16z"/>
<path d="M4252 1708 c-41 -50 6 -116 63 -90 32 15 36 75 6 92 -26 14 -56 13
-69 -2z"/>
<path d="M3818 1448 c-45 -16 -49 -69 -6 -101 21 -15 28 -16 51 -6 72 32 30
132 -45 107z"/>
</g>
</svg>
